<svg width="24" height="24" viewBox="0 0 24 24" fill="none" xmlns="http://www.w3.org/2000/svg">
<path d="M20 20H16V16H20V20ZM14 10H10V14H14V10ZM20 10H16V14H20V10ZM8 16H4V20H8V16ZM14 16H10V20H14V16ZM8 10H4V14H8V10ZM24 2V24H0V2H3V3C3 4.1 3.9 5 5 5C6.1 5 7 4.1 7 3V2H17V3C17 4.1 17.9 5 19 5C20.1 5 21 4.1 21 3V2H24ZM22 8H2V22H22V8ZM20 1C20 0.45 19.55 0 19 0C18.45 0 18 0.45 18 1V3C18 3.55 18.45 4 19 4C19.55 4 20 3.55 20 3V1ZM6 3C6 3.55 5.55 4 5 4C4.45 4 4 3.55 4 3V1C4 0.45 4.45 0 5 0C5.55 0 6 0.45 6 1V3Z" fill="black"/>
</svg>
