<svg xmlns="http://www.w3.org/2000/svg" width="15" height="17" viewBox="0 0 15 17"><defs><clipPath id="e6r3a"><path fill="#fff" d="M12 3L3 9l9 5"/></clipPath><clipPath id="e6r3b"><path fill="#fff" d="M12 11a3 3 0 1 1 0 6 3 3 0 0 1 0-6z"/></clipPath><clipPath id="e6r3c"><path fill="#fff" d="M3 6a3 3 0 1 1 0 6 3 3 0 0 1 0-6z"/></clipPath><clipPath id="e6r3d"><path fill="#fff" d="M12 0a3 3 0 1 1 0 6 3 3 0 0 1 0-6z"/></clipPath></defs><g><g><g><path fill="none" stroke="#888" stroke-miterlimit="20" stroke-width="2" d="M12 3v0L3 9v0l9 5v0" clip-path="url(&quot;#e6r3a&quot;)"/></g><g><path fill="#fff" d="M12 11a3 3 0 1 1 0 6 3 3 0 0 1 0-6z"/><path fill="none" stroke="#888" stroke-miterlimit="20" stroke-width="2" d="M12 11a3 3 0 1 1 0 6 3 3 0 0 1 0-6z" clip-path="url(&quot;#e6r3b&quot;)"/></g><g><path fill="#fff" d="M3 6a3 3 0 1 1 0 6 3 3 0 0 1 0-6z"/><path fill="none" stroke="#888" stroke-miterlimit="20" stroke-width="2" d="M3 6a3 3 0 1 1 0 6 3 3 0 0 1 0-6z" clip-path="url(&quot;#e6r3c&quot;)"/></g><g><path fill="#fff" d="M12 0a3 3 0 1 1 0 6 3 3 0 0 1 0-6z"/><path fill="none" stroke="#888" stroke-miterlimit="20" stroke-width="2" d="M12 0a3 3 0 1 1 0 6 3 3 0 0 1 0-6z" clip-path="url(&quot;#e6r3d&quot;)"/></g></g></g></svg>